<?xml version="1.0" encoding="UTF-8"?>
<!DOCTYPE svg PUBLIC "-//W3C//DTD SVG 1.1//EN" "http://www.w3.org/Graphics/SVG/1.1/DTD/svg11.dtd">
<!-- Creator: CorelDRAW X7 -->
<svg xmlns="http://www.w3.org/2000/svg" xml:space="preserve" width="210mm" height="297mm" version="1.1" style="shape-rendering:geometricPrecision; text-rendering:geometricPrecision; image-rendering:optimizeQuality; fill-rule:evenodd; clip-rule:evenodd"
viewBox="0 0 21000 29700"
 xmlns:xlink="http://www.w3.org/1999/xlink">
 <defs>
  <style type="text/css">
   <![CDATA[
    .fil0 {fill:#3E4095}
   ]]>
  </style>
 </defs>
 <g id="Layer_x0020_1">
  <metadata id="CorelCorpID_0Corel-Layer"/>
  <g id="_1701341891904">
   <path class="fil0" d="M5151 16801c0,400 -117,1021 268,1137 308,93 833,-309 1092,-310 243,-1 760,377 1054,319 421,-82 308,-716 308,-1151l9732 0 0 1941c-999,66 -4121,9 -5351,9l-9345 0c-520,2 -747,-39 -1022,-344 -543,-604 -116,-1493 594,-1593 561,-79 2049,-32 2670,-8zm773 -2341l1169 8 -7 2515c-863,-208 -282,-220 -1162,3l0 -2526zm-782 382c-834,32 -1786,22 -2625,6 -1025,-20 -1067,-1057 -537,-1415 366,-248 1937,-141 2486,-141 2629,0 5257,0 7885,0 1271,0 4188,-57 5255,8l-8 1547 -9720 0 -5 -338 241 -149c69,-55 127,-126 139,-249 62,-627 -985,-432 -1742,-432 -716,0 -1883,-191 -1740,473 47,218 235,237 381,357l-10 333zm8 791l-4 377c-924,36 -2646,-152 -3346,211 -695,361 -1288,1413 -716,2400 555,956 1310,898 2652,898l14212 0c442,0 1363,144 1550,-202 125,-230 -8,-482 -211,-547 -146,-47 -705,-25 -895,-25l-6 -1949c423,0 1336,118 1142,-507 -132,-426 -990,-274 -1434,-274l-10213 0 -9 -387 10222 0c441,0 1304,150 1434,-272 193,-626 -712,-509 -1134,-509l-8 -1555c253,0 1420,143 1129,-542 -167,-391 -1072,-240 -1518,-240l-14017 0c-1261,0 -2194,-197 -2837,671 -644,869 -101,1986 636,2311 576,254 2573,110 3371,141z"/>
   <path class="fil0" d="M5564 9523c2913,-429 6383,-435 9314,-3l68 775c-761,-54 -1550,-171 -2323,-232 -1367,-108 -3491,-105 -4858,4 -756,59 -1566,193 -2302,228l101 -772zm50 -804c23,-1266 597,-1363 1668,-1664 1877,-530 3979,-542 5855,-1 1061,306 1652,398 1667,1664 -5050,-380 -4118,-393 -9190,1zm-2850 -1852c131,-80 7258,-2106 7446,-2107 152,-1 7306,2023 7454,2127l-2295 636c-130,-132 -182,-285 -403,-497 -872,-836 -3642,-1149 -4756,-1149 -1160,0 -3329,319 -4308,820 -468,239 -825,797 -825,797 -4,-9 -17,20 -30,41l-2283 -668zm-1331 455c144,1053 -252,3250 286,3414 660,201 511,-845 511,-1289 0,-611 -26,-1284 7,-1887l2616 729c-4,817 -156,1875 -230,2714 -38,421 -191,1062 290,1110 496,50 451,-591 484,-1007 2686,-438 6904,-506 9582,-11 196,339 -64,1021 487,1020 516,-1 371,-654 335,-1062 -77,-853 -232,-1938 -237,-2769 971,-224 2036,-563 3005,-845 342,-99 1406,-300 867,-841 -162,-162 -7818,-2298 -8983,-2599 -431,-111 -1117,182 -1541,300l-6037 1706c-518,149 -1011,276 -1518,427 -254,76 -515,151 -483,476 30,290 284,336 559,414z"/>
   <path class="fil0" d="M2819 20695c831,-54 15271,-35 15489,27 658,186 583,986 -36,1112 -301,62 -10394,21 -11323,21 -1315,0 -2839,71 -4134,-7l4 -1153zm-792 -8l5 1168c-415,0 -984,-99 -1128,239 -215,508 364,545 739,543l13774 0c873,0 1870,44 2727,-4 1884,-106 1840,-2605 49,-2715 -865,-53 -1892,-4 -2776,-4l-13725 -1c-385,-1 -961,-13 -801,505 118,382 733,269 1136,269z"/>
  </g>
 </g>
</svg>
