<?xml version="1.0" encoding="UTF-8"?>
<!DOCTYPE svg PUBLIC "-//W3C//DTD SVG 1.1//EN" "http://www.w3.org/Graphics/SVG/1.1/DTD/svg11.dtd">
<!-- Creator: CorelDRAW X7 -->
<svg xmlns="http://www.w3.org/2000/svg" xml:space="preserve" width="210mm" height="297mm" version="1.1" style="shape-rendering:geometricPrecision; text-rendering:geometricPrecision; image-rendering:optimizeQuality; fill-rule:evenodd; clip-rule:evenodd"
viewBox="0 0 21000 29700"
 xmlns:xlink="http://www.w3.org/1999/xlink">
 <defs>
  <style type="text/css">
   <![CDATA[
    .fil2 {fill:#F8CFB4;fill-rule:nonzero}
    .fil0 {fill:#E9B297;fill-rule:nonzero}
    .fil9 {fill:#E7F5FD;fill-rule:nonzero}
    .fil13 {fill:#EECC2F;fill-rule:nonzero}
    .fil3 {fill:#E5C0A6;fill-rule:nonzero}
    .fil14 {fill:#E1BA36;fill-rule:nonzero}
    .fil1 {fill:#DBA493;fill-rule:nonzero}
    .fil5 {fill:#BCD3DF;fill-rule:nonzero}
    .fil4 {fill:#66635C;fill-rule:nonzero}
    .fil7 {fill:#40444B;fill-rule:nonzero}
    .fil11 {fill:#454B55;fill-rule:nonzero}
    .fil8 {fill:#383B40;fill-rule:nonzero}
    .fil12 {fill:#333438;fill-rule:nonzero}
    .fil10 {fill:#34373E;fill-rule:nonzero}
    .fil6 {fill:#485F78;fill-rule:nonzero}
   ]]>
  </style>
 </defs>
 <g id="Layer_x0020_1">
  <metadata id="CorelCorpID_0Corel-Layer"/>
  <g id="_2203877747296">
   <polygon class="fil0" points="9270,12936 10253,13838 10566,13483 9270,12191 "/>
   <polygon class="fil1" points="11074,11993 9270,12101 9270,12191 10566,13483 11074,12909 "/>
   <path class="fil2" d="M9312 9238c-250,97 -517,290 -551,575 -25,205 69,404 47,613 -5,54 -13,178 -97,123 -34,-22 -16,-90 -53,-118 -82,-60 -116,45 -119,108 -12,225 20,470 120,674 58,118 138,151 219,237 89,94 74,279 107,397 23,81 57,154 103,218 99,136 271,200 384,324 106,116 204,232 350,307 82,42 194,45 301,41l0 -3511c-252,-82 -569,-81 -811,12z"/>
   <path class="fil3" d="M11751 10539c-3,-63 -37,-168 -119,-108 -37,28 -19,96 -53,118 -84,55 -92,-69 -97,-123 -21,-209 72,-408 47,-613 -34,-285 -301,-478 -551,-575 -249,-96 -578,-94 -833,-5l-22 -7 0 3511 22 -1c113,5 235,5 323,-40 146,-75 244,-191 350,-307 113,-124 285,-188 384,-324 46,-64 80,-137 103,-218 33,-118 18,-303 108,-397 80,-86 161,-119 218,-237 100,-204 132,-449 120,-674z"/>
   <path class="fil4" d="M8647 10258c34,117 39,205 35,324 -1,15 -2,39 -1,65l149 0c2,-31 1,-61 0,-79 -5,-86 -2,-155 3,-241 6,-115 -8,-233 3,-347 30,-301 287,-513 573,-536 210,-16 420,27 630,28 260,0 377,-125 582,-253 55,-34 23,-38 80,-24 37,10 85,61 117,80 194,120 544,238 600,489 45,198 35,400 30,601 -1,28 -25,181 -19,282l117 0c38,-121 88,-286 100,-350 49,-255 38,-367 50,-476 42,-385 63,-754 -174,-1077 -254,-346 -631,-548 -832,-522 -11,1 -147,14 -130,29 -72,-64 -198,-69 -286,-90 -472,-113 -1069,181 -1412,494 -362,331 -309,757 -268,1166 15,143 14,301 53,437z"/>
   <path class="fil5" d="M9270 14515c-6,-66 864,-981 864,-981l112 0 828 924 -865 2313 -939 -2256z"/>
   <path class="fil6" d="M10624 15485l-294 -1336c-10,-43 -4,-87 17,-126l111 -210 -7 -37c-43,-42 -86,-85 -129,-128 -30,-29 -65,-56 -82,-94 -12,-28 -45,-89 -84,-63 -34,23 -46,59 -67,89 -22,30 -57,56 -83,82 -38,38 -77,76 -115,114l-8 37 112 210c20,39 26,83 17,126l-295 1336 2 20 408 1048c7,19 27,25 44,18 16,7 36,1 44,-18l408 -1048 1 -20z"/>
   <path class="fil7" d="M6425 17072l3699 0 6 -1537 -686 -1475 -283 -942c0,0 -11,4 -31,10 -71,20 -260,78 -500,150 -645,195 -1651,500 -1678,519 -13,9 -103,182 -214,406 -206,412 -313,866 -313,1327l0 1542z"/>
   <path class="fil8" d="M13900 15258c0,-302 -70,-599 -204,-870 -151,-307 -289,-580 -306,-591 -28,-19 -1034,-324 -1678,-519 -240,-72 -430,-129 -501,-150 -20,-6 -30,-10 -30,-10l-396 1276 -662 1130 -8 1548 3785 0 0 -1814z"/>
   <path class="fil9" d="M11088 12653l-893 806 -48 0 -893 -806 -200 585 386 1277 701 -987c15,-20 45,-20 59,0l701 987 386 -1277 -199 -585z"/>
   <path class="fil10" d="M8546 13762l1576 1835 1674 -1835 -469 -124 539 -166c-27,-51 -85,-156 -154,-250 -240,-46 -430,-194 -501,-208l-426 906 -138 255 -503 927 -450 -927 -250 -463 -313 -698c-72,13 -261,162 -501,208 -70,94 -128,199 -155,250l539 166 -468 124z"/>
   <path class="fil7" d="M11840 7708l0 1894c-248,54 -536,103 -857,136 -259,27 -540,41 -838,40 -626,-5 -1167,-83 -1597,-176l0 -1688 998 -62 2294 -144z"/>
   <path class="fil8" d="M11840 7708l0 1894c-248,54 -536,103 -857,136l-2435 -1320 -96 -56 96 -44 998 -466 2294 -144z"/>
   <polygon class="fil10" points="6901,7432 10061,6881 13399,7604 9819,9163 "/>
   <polygon class="fil11" points="6901,7432 10061,6881 13399,7604 9777,8741 "/>
   <path class="fil12" d="M10172 7303c0,85 -143,155 -320,155 -176,0 -319,-70 -319,-155 0,-86 143,-155 319,-155 177,0 320,69 320,155z"/>
   <path class="fil13" d="M7680 8378l-4 0c-51,-3 -91,-46 -89,-98l3 -66c10,-258 20,-502 306,-587l2014 -441c50,-11 99,21 110,71 11,50 -20,100 -70,111l-2007 439c-140,42 -156,136 -167,414l-3 68c-2,50 -43,89 -93,89z"/>
   <path class="fil13" d="M7372 8801c0,421 297,761 297,761l9 -10 0 -1278c-158,8 -306,123 -306,527z"/>
   <path class="fil14" d="M7696 8273l-18 1 0 1278c49,-59 289,-372 289,-751 0,-420 -106,-528 -271,-528z"/>
  </g>
 </g>
</svg>
