<?xml version="1.0" encoding="UTF-8"?>
<!DOCTYPE svg PUBLIC "-//W3C//DTD SVG 1.1//EN" "http://www.w3.org/Graphics/SVG/1.1/DTD/svg11.dtd">
<!-- Creator: CorelDRAW X7 -->
<svg xmlns="http://www.w3.org/2000/svg" xml:space="preserve" width="210mm" height="297mm" version="1.1" style="shape-rendering:geometricPrecision; text-rendering:geometricPrecision; image-rendering:optimizeQuality; fill-rule:evenodd; clip-rule:evenodd"
viewBox="0 0 21000 29700"
 xmlns:xlink="http://www.w3.org/1999/xlink">
 <defs>
  <style type="text/css">
   <![CDATA[
    .fil13 {fill:#FEFEFE;fill-rule:nonzero}
    .fil16 {fill:#FEE8D8;fill-rule:nonzero}
    .fil26 {fill:#F2706F;fill-rule:nonzero}
    .fil3 {fill:#EB8D8C;fill-rule:nonzero}
    .fil14 {fill:#EFDEBB;fill-rule:nonzero}
    .fil40 {fill:#EFD29B;fill-rule:nonzero}
    .fil5 {fill:#E8E7DE;fill-rule:nonzero}
    .fil38 {fill:#E6BB70;fill-rule:nonzero}
    .fil27 {fill:#E2E2DD;fill-rule:nonzero}
    .fil19 {fill:#DBC4B3;fill-rule:nonzero}
    .fil1 {fill:#D14442;fill-rule:nonzero}
    .fil23 {fill:#DDDCCF;fill-rule:nonzero}
    .fil11 {fill:#CE3D3F;fill-rule:nonzero}
    .fil25 {fill:#CC4440;fill-rule:nonzero}
    .fil39 {fill:#D1A466;fill-rule:nonzero}
    .fil28 {fill:#D5D4CF;fill-rule:nonzero}
    .fil6 {fill:#D4D3C8;fill-rule:nonzero}
    .fil15 {fill:#CBA27A;fill-rule:nonzero}
    .fil12 {fill:#B1373B;fill-rule:nonzero}
    .fil2 {fill:#AE373C;fill-rule:nonzero}
    .fil24 {fill:#C2C5BD;fill-rule:nonzero}
    .fil17 {fill:#AE6F42;fill-rule:nonzero}
    .fil18 {fill:#94603E;fill-rule:nonzero}
    .fil22 {fill:#6A94CC;fill-rule:nonzero}
    .fil10 {fill:#51C1D4;fill-rule:nonzero}
    .fil35 {fill:#616371;fill-rule:nonzero}
    .fil20 {fill:#6E83A9;fill-rule:nonzero}
    .fil21 {fill:#637A9D;fill-rule:nonzero}
    .fil31 {fill:#5A5E77;fill-rule:nonzero}
    .fil33 {fill:#444552;fill-rule:nonzero}
    .fil4 {fill:#2E3031;fill-rule:nonzero}
    .fil7 {fill:#339EBB;fill-rule:nonzero}
    .fil37 {fill:#455460;fill-rule:nonzero}
    .fil30 {fill:#4D5167;fill-rule:nonzero}
    .fil34 {fill:#3D3F4A;fill-rule:nonzero}
    .fil9 {fill:#3693A3;fill-rule:nonzero}
    .fil29 {fill:#373A43;fill-rule:nonzero}
    .fil8 {fill:#328890;fill-rule:nonzero}
    .fil36 {fill:#313840;fill-rule:nonzero}
    .fil32 {fill:#2E3139;fill-rule:nonzero}
    .fil0 {fill:#ECCEAE;fill-rule:nonzero}
   ]]>
  </style>
 </defs>
 <g id="Layer_x0020_1">
  <metadata id="CorelCorpID_0Corel-Layer"/>
  <g id="_1602614945840">
   <path class="fil0" d="M17287 8799c0,3908 -3452,7076 -7711,7076 -4260,0 -7712,-3168 -7712,-7076 0,-3907 3452,-7075 7712,-7075 4259,0 7711,3168 7711,7075z"/>
   <path class="fil1" d="M14876 13113c175,-96 230,-100 278,-143 60,-54 92,-153 39,-215 -33,-40 -88,-52 -139,-62 -2243,-433 -4485,-867 -6727,-1300 -359,-69 -721,-139 -1086,-124 -342,14 -677,102 -1006,199 -939,276 -1854,626 -2768,975 -113,43 -229,88 -316,173 -88,85 -137,202 -181,316 -176,445 -312,995 -11,1368 180,222 476,299 745,394 2428,862 4050,1592 6503,2349 224,69 448,214 676,154 120,-31 4098,-2583 4196,-2678 99,-95 207,-142 178,-206 -56,-125 -225,-204 -330,-116 -17,-364 -24,-710 -40,-1073l-11 -11z"/>
   <path class="fil2" d="M2784 13814l7703 2905 471 -304c0,0 79,671 -272,789 -160,-25 -320,-112 -479,-161 -2453,-757 -4075,-1487 -6503,-2349 -269,-95 -565,-172 -745,-394 -114,-142 -165,-309 -175,-486z"/>
   <path class="fil2" d="M3160 12607c1180,451 7448,2880 7448,2880l989 -548 3603 -2176c-2,-3 -5,-6 -7,-8 -33,-40 -88,-52 -139,-62 -2243,-433 -4485,-867 -6727,-1300 -359,-69 -721,-139 -1086,-124 -342,14 -677,102 -1006,199 -939,276 -1854,626 -2768,975 -109,42 -221,85 -307,164z"/>
   <path class="fil2" d="M10828 17208c-122,-63 -315,-192 -357,-397 -60,-305 -86,-1178 254,-1228 297,-44 3415,-1235 4195,-1535 2,50 4,99 7,149 105,-88 274,-9 330,116 29,64 -79,111 -178,206 -98,95 -4076,2647 -4196,2678 -19,5 -37,8 -55,11z"/>
   <path class="fil3" d="M3024 12804l7447 2835 -106 228 -7503 -2623c31,-107 68,-212 108,-312 16,-43 34,-86 54,-128z"/>
   <path class="fil4" d="M12007 16440c-240,151 -480,303 -720,454 -131,82 -261,172 -399,243 -131,69 -305,8 -432,-40 -257,-98 -518,-177 -780,-261 -501,-162 -999,-332 -1495,-510 -939,-337 -1867,-700 -2800,-1053 -505,-191 -1012,-379 -1520,-561 -222,-79 -461,-141 -668,-256 -225,-124 -354,-329 -377,-585 -21,-237 36,-477 110,-701 73,-222 150,-474 366,-596 110,-63 235,-101 353,-146 134,-52 268,-103 402,-153 268,-102 536,-202 806,-299 536,-193 1077,-379 1627,-528 274,-74 555,-132 840,-137 291,-4 580,42 866,95 1151,216 2299,445 3449,667 575,111 1151,222 1726,333 574,111 1152,208 1723,333 44,9 95,21 105,76 5,24 -17,60 -30,79 -19,29 -43,49 -72,65 -76,42 -157,74 -232,117 -10,5 -8,21 0,37 15,353 23,706 39,1059 1,16 36,88 59,70 87,-64 237,-39 276,69 45,123 -2622,1752 -3222,2129zm3285 -2089c39,-129 -201,-276 -337,-229 -13,-325 -21,-649 -36,-974 0,-2 0,-5 -1,-7 130,-62 341,-114 331,-293 -4,-84 -65,-153 -142,-180 -130,-46 -280,-58 -415,-85 -610,-118 -1220,-236 -1830,-354 -1221,-236 -2441,-472 -3662,-708 -307,-59 -614,-119 -922,-178 -300,-58 -602,-114 -908,-120 -586,-10 -1162,195 -1712,373 -578,188 -1149,399 -1717,614 -138,53 -277,105 -415,158 -121,46 -250,87 -354,166 -189,143 -264,422 -329,639 -126,417 -161,921 192,1240 173,156 400,226 616,300 274,95 547,195 820,296 1007,370 2005,765 3011,1139 503,188 1009,370 1517,543 275,93 551,184 827,272 144,46 289,88 431,136 124,42 242,101 369,134 108,28 229,42 329,-13 60,-33 118,-70 176,-106 221,-136 448,-303 668,-442 624,-393 3432,-2118 3493,-2321z"/>
   <path class="fil5" d="M14899 13088c-1316,772 -2666,1575 -3982,2347 -70,41 -142,84 -192,148 -60,77 -82,177 -97,274 -45,284 -48,574 -10,859 12,92 43,202 133,228 50,15 103,-2 152,-20 548,-202 3120,-1990 3958,-2494 23,-14 48,-29 60,-54 10,-19 11,-42 12,-63 10,-392 32,-838 -24,-1225l-10 0z"/>
   <path class="fil6" d="M14937 14164c-213,106 -423,216 -633,328 -767,412 -1515,861 -2258,1315 -208,127 -415,254 -623,381 -199,122 -397,252 -621,323 0,-70 0,-143 2,-216 157,-71 305,-159 454,-244 172,-97 342,-196 512,-296 342,-201 682,-405 1023,-609 676,-404 1355,-806 2053,-1171 32,-17 65,-34 98,-51l0 -24c-340,175 -676,361 -1008,550 -685,392 -1357,804 -2036,1206 -188,111 -376,222 -565,331 -174,100 -348,207 -531,291 2,-53 4,-105 8,-156 148,-59 290,-135 428,-217 170,-101 337,-207 505,-312 342,-213 683,-427 1025,-639 686,-425 1377,-842 2087,-1224 30,-16 59,-32 89,-47l0 -24c-344,183 -682,377 -1018,573 -691,404 -1368,830 -2046,1255 -189,118 -377,237 -567,354 -162,100 -327,194 -502,267 4,-62 11,-121 19,-176 628,-386 1256,-771 1892,-1144 669,-391 1344,-771 2026,-1140 65,-35 129,-70 194,-105l0 -23 -82 44c-340,183 -678,370 -1015,559 -676,379 -1345,770 -2008,1172 -337,203 -673,410 -1005,622 22,-128 56,-227 109,-263 200,-133 3571,-2048 3994,-2288 -6,-95 -15,-188 -28,-278l-10 0c-1316,772 -2666,1575 -3982,2347 -70,41 -142,84 -192,148 -60,77 -82,177 -97,274 -45,284 -48,574 -10,859 12,92 43,202 133,228 23,7 46,7 69,3 -2,-28 -6,-95 -10,-184 386,-153 748,-361 1101,-578 366,-224 726,-457 1094,-678 471,-283 950,-554 1435,-812 67,-44 131,-84 190,-122 -117,61 -234,123 -350,186 -383,207 -762,421 -1136,644 -371,220 -734,451 -1099,679 -398,249 -804,484 -1236,669 -3,-66 -5,-144 -6,-226 191,-57 363,-160 533,-263 184,-112 368,-224 551,-337 372,-227 745,-453 1120,-675 632,-374 1272,-735 1929,-1062l1 -24z"/>
   <path class="fil6" d="M12532 15679c-197,105 -389,220 -582,333 -192,114 -386,227 -573,348 -6,4 -1,14 6,10 193,-111 383,-230 576,-343 193,-113 388,-222 580,-336 8,-5 1,-16 -7,-12z"/>
   <path class="fil6" d="M13608 14736c-331,183 -658,377 -984,569 -6,4 0,14 7,11 329,-187 659,-374 983,-570 6,-4 0,-14 -6,-10z"/>
   <path class="fil6" d="M14946 13743c-343,158 -670,355 -975,575 -4,3 0,11 5,8 306,-220 631,-405 970,-565l0 -18z"/>
   <path class="fil4" d="M14879 13066c-1023,577 -2026,1191 -3037,1787 -252,149 -504,297 -757,445 -108,63 -226,121 -325,199 -88,70 -137,163 -163,271 -66,274 -68,573 -41,852 10,97 14,212 75,293 64,83 166,80 257,51 185,-60 358,-172 524,-270 264,-156 523,-320 781,-485 611,-393 1215,-796 1822,-1195 239,-157 478,-314 721,-466 44,-28 88,-55 132,-82 30,-18 63,-35 85,-63 36,-42 31,-98 33,-151 7,-270 18,-540 7,-811 -6,-124 -16,-247 -33,-370 -6,-43 -107,-13 -101,34 36,259 39,521 34,783 -2,126 -7,253 -10,380 -2,62 -1,107 -59,143 -20,13 -40,25 -60,37 -215,132 -426,271 -637,409 -570,373 -1136,752 -1707,1123 -453,295 -907,605 -1390,850 -94,48 -247,139 -318,21 -62,-102 -59,-249 -65,-365 -8,-138 -7,-277 4,-415 10,-125 20,-261 64,-380 48,-132 161,-193 275,-260 239,-141 478,-281 717,-422 952,-562 1904,-1125 2857,-1687 119,-70 238,-140 355,-212 51,-31 1,-68 -40,-44l0 0z"/>
   <path class="fil7" d="M14876 11074c175,-96 230,-100 278,-143 60,-54 92,-153 39,-215 -33,-40 -88,-52 -139,-62 -2243,-433 -4485,-867 -6727,-1300 -359,-69 -721,-139 -1086,-124 -342,14 -677,102 -1006,199 -939,276 -1854,626 -2768,975 -113,43 -229,88 -316,173 -88,85 -137,202 -181,316 -176,446 -312,995 -11,1368 180,222 476,299 745,394 2428,862 4050,1593 6503,2349 224,69 448,214 676,154 120,-31 4098,-2583 4196,-2678 99,-95 207,-142 178,-206 -56,-125 -225,-204 -330,-116 -17,-364 -24,-710 -40,-1073l-11 -11z"/>
   <path class="fil8" d="M2784 11775l7703 2906 471 -305c0,0 79,671 -272,789 -160,-25 -320,-112 -479,-161 -2453,-756 -4075,-1487 -6503,-2349 -269,-95 -565,-172 -745,-394 -114,-142 -165,-309 -175,-486z"/>
   <path class="fil9" d="M3160 10568c1180,451 7448,2880 7448,2880l989 -548 3603 -2176c-2,-3 -5,-6 -7,-8 -33,-40 -88,-52 -139,-62 -2243,-433 -4485,-867 -6727,-1300 -359,-69 -721,-139 -1086,-124 -342,14 -677,102 -1006,199 -939,276 -1854,626 -2768,975 -109,42 -221,85 -307,164z"/>
   <path class="fil9" d="M10828 15169c-122,-62 -315,-192 -357,-397 -60,-305 -86,-1178 254,-1228 297,-44 3415,-1235 4195,-1534 2,49 4,98 7,148 105,-88 274,-9 330,116 29,64 -79,111 -178,206 -98,95 -4076,2647 -4196,2678 -19,5 -37,8 -55,11z"/>
   <path class="fil10" d="M3024 10765l7447 2835 -106 228 -7503 -2623c31,-107 68,-212 108,-312 16,-43 34,-86 54,-128z"/>
   <path class="fil4" d="M12007 14401c-240,151 -480,303 -720,454 -131,83 -261,172 -399,243 -131,69 -305,8 -432,-40 -257,-97 -518,-177 -780,-261 -501,-161 -999,-332 -1495,-510 -939,-337 -1867,-700 -2800,-1053 -505,-191 -1012,-379 -1520,-561 -222,-79 -461,-141 -668,-256 -225,-124 -354,-329 -377,-584 -21,-237 36,-478 110,-702 73,-222 150,-474 366,-596 110,-62 235,-101 353,-146 134,-51 268,-102 402,-153 268,-102 536,-202 806,-299 536,-193 1077,-379 1627,-527 274,-75 555,-133 840,-137 291,-5 580,41 866,94 1151,216 2299,445 3449,667 575,111 1151,222 1726,333 574,111 1152,208 1723,333 44,10 95,21 105,76 5,24 -17,60 -30,79 -19,29 -43,49 -72,65 -76,43 -157,75 -232,117 -10,5 -8,21 0,37 15,353 23,706 39,1059 1,16 36,88 59,70 87,-64 237,-39 276,69 45,123 -2622,1752 -3222,2129zm3285 -2089c39,-128 -201,-276 -337,-229 -13,-325 -21,-649 -36,-974 0,-2 0,-4 -1,-7 130,-62 341,-114 331,-293 -4,-84 -65,-153 -142,-180 -130,-46 -280,-58 -415,-84 -610,-119 -1220,-237 -1830,-355 -1221,-236 -2441,-472 -3662,-707 -307,-60 -614,-119 -922,-179 -300,-58 -602,-114 -908,-120 -586,-10 -1162,195 -1712,374 -578,187 -1149,398 -1717,613 -138,53 -277,105 -415,158 -121,46 -250,87 -354,166 -189,143 -264,422 -329,639 -126,417 -161,921 192,1240 173,156 400,226 616,300 274,95 547,196 820,296 1007,370 2005,765 3011,1139 503,188 1009,370 1517,543 275,94 551,184 827,273 144,45 289,87 431,135 124,43 242,101 369,134 108,29 229,42 329,-13 60,-33 118,-70 176,-106 221,-136 448,-303 668,-441 624,-394 3432,-2119 3493,-2322z"/>
   <path class="fil5" d="M14899 11049c-1316,772 -2666,1575 -3982,2347 -70,41 -142,84 -192,148 -60,77 -82,178 -97,274 -45,284 -48,574 -10,859 12,92 43,202 133,228 50,15 103,-2 152,-20 548,-201 3120,-1990 3958,-2494 23,-14 48,-29 60,-54 10,-19 11,-42 12,-63 10,-392 32,-838 -24,-1225l-10 0z"/>
   <path class="fil6" d="M14937 12125c-213,106 -423,216 -633,328 -767,412 -1515,861 -2258,1315 -208,127 -415,254 -623,382 -199,121 -397,252 -621,322 0,-70 0,-143 2,-216 157,-71 305,-159 454,-244 172,-97 342,-196 512,-296 342,-201 682,-405 1023,-609 676,-404 1355,-806 2053,-1171 32,-17 65,-34 98,-51l0 -24c-340,175 -676,361 -1008,551 -685,391 -1357,803 -2036,1205 -188,111 -376,222 -565,331 -174,100 -348,207 -531,291 2,-53 4,-105 8,-156 148,-59 290,-135 428,-217 170,-101 337,-207 505,-312 342,-213 683,-427 1025,-639 686,-425 1377,-842 2087,-1224 30,-16 59,-32 89,-47l0 -24c-344,184 -682,377 -1018,573 -691,404 -1368,830 -2046,1255 -189,118 -377,237 -567,354 -162,100 -327,194 -502,267 4,-62 11,-121 19,-176 628,-386 1256,-771 1892,-1144 669,-391 1344,-771 2026,-1140 65,-35 129,-70 194,-104l0 -24 -82 44c-340,183 -678,370 -1015,559 -676,380 -1345,770 -2008,1172 -337,204 -673,410 -1005,622 22,-128 56,-227 109,-263 200,-133 3571,-2048 3994,-2288 -6,-95 -15,-188 -28,-278l-10 0c-1316,772 -2666,1575 -3982,2347 -70,41 -142,84 -192,148 -60,77 -82,178 -97,274 -45,284 -48,574 -10,859 12,92 43,202 133,228 23,7 46,7 69,3 -2,-28 -6,-95 -10,-184 386,-153 748,-361 1101,-578 366,-224 726,-457 1094,-678 471,-283 950,-554 1435,-812 67,-43 131,-84 190,-122 -117,61 -234,124 -350,186 -383,207 -762,421 -1136,644 -371,220 -734,451 -1099,679 -398,249 -804,484 -1236,669 -3,-66 -5,-144 -6,-226 191,-57 363,-160 533,-263 184,-112 368,-224 551,-337 372,-227 745,-453 1120,-675 632,-374 1272,-735 1929,-1062l1 -24z"/>
   <path class="fil6" d="M12532 13640c-197,105 -389,220 -582,334 -192,113 -386,226 -573,347 -6,4 -1,14 6,10 193,-111 383,-230 576,-343 193,-113 388,-222 580,-336 8,-5 1,-16 -7,-12z"/>
   <path class="fil6" d="M13608 12697c-331,183 -658,377 -984,569 -6,4 0,14 7,11 329,-187 659,-374 983,-570 6,-4 0,-14 -6,-10z"/>
   <path class="fil6" d="M14946 11704c-343,158 -670,355 -975,575 -4,4 0,11 5,8 306,-220 631,-405 970,-565l0 -18z"/>
   <path class="fil4" d="M14879 11027c-1023,577 -2026,1191 -3037,1787 -252,149 -504,297 -757,445 -108,64 -226,121 -325,199 -88,70 -137,163 -163,271 -66,274 -68,573 -41,852 10,97 14,212 75,293 64,84 166,80 257,51 185,-60 358,-172 524,-270 264,-156 523,-320 781,-485 611,-392 1215,-796 1822,-1195 239,-157 478,-314 721,-466 44,-28 88,-55 132,-82 30,-18 63,-35 85,-63 36,-42 31,-98 33,-151 7,-270 18,-540 7,-810 -6,-124 -16,-248 -33,-371 -6,-43 -107,-12 -101,34 36,259 39,522 34,783 -2,126 -7,253 -10,380 -2,62 -1,107 -59,143 -20,13 -40,25 -60,37 -215,133 -426,271 -637,409 -570,373 -1136,752 -1707,1123 -453,295 -907,606 -1390,850 -94,48 -247,139 -318,21 -62,-102 -59,-249 -65,-365 -8,-138 -7,-277 4,-415 10,-125 20,-261 64,-380 48,-132 161,-193 275,-260 239,-141 478,-281 717,-422 952,-562 1904,-1125 2857,-1687 119,-70 238,-140 355,-212 51,-31 1,-68 -40,-44l0 0z"/>
   <path class="fil11" d="M13226 16698c119,-44 239,-89 365,-97 126,-9 261,24 349,114 72,75 105,180 173,259 147,173 425,179 627,74 133,-69 243,-176 372,-253 246,-148 547,-176 834,-151 -33,129 -65,259 -97,388 -100,-112 -274,-127 -418,-83 -143,44 -266,136 -394,214 -182,112 -390,202 -603,183 -217,-19 -412,-149 -555,-314 -120,-140 -247,-324 -431,-309 -102,8 -189,82 -252,163 -113,145 -165,379 -26,500 83,72 203,76 313,86 209,18 457,109 488,317 26,175 -123,326 -273,419 -213,132 -457,213 -706,235 -17,-87 -33,-174 -50,-261 251,5 503,-77 703,-228 64,-49 129,-127 98,-202 -13,-30 -41,-53 -69,-70 -223,-135 -551,-51 -731,-239 -145,-152 -103,-417 41,-569 144,-153 359,-216 567,-248l-325 72z"/>
   <path class="fil12" d="M12989 16868l183 52c8,-12 16,-23 24,-34 63,-81 150,-155 252,-163 73,-6 137,20 196,61l245 -111c-84,-59 -194,-79 -298,-72 -126,8 -246,53 -365,97l325 -72c-205,32 -417,93 -562,242z"/>
   <path class="fil13" d="M12889 17021l243 -29c-24,52 -40,107 -44,161l-231 107c-11,-78 1,-162 32,-239zm98 461l150 -130c10,12 20,23 33,34 34,30 74,48 117,60l-48 128c-93,-16 -180,-39 -252,-92zm480 127l78 -130c54,9 109,22 161,40l-97 131c-45,-19 -93,-31 -142,-41zm280 156l207 -38c8,19 14,40 17,62 5,36 3,71 -5,105l-245 -17c24,-35 37,-74 26,-112zm-182 244l226 133c-30,24 -62,46 -93,66 -24,15 -48,29 -72,42l-169 -182c37,-17 73,-37 108,-59zm-351 145l112 223c-72,22 -145,40 -220,52l-84 -248c65,-4 129,-13 192,-27z"/>
   <path class="fil13" d="M13967 16746c-58,26 -153,72 -237,114 33,34 64,70 95,107l214 -106c-23,-39 -45,-79 -72,-115zm192 274l-122 162c53,40 110,76 170,103l91 -191c-51,-16 -98,-40 -139,-74zm371 93l34 232c45,-5 90,-14 135,-26l-25 -241c-47,17 -95,29 -144,35zm388 -182l105 241 14 -9c42,-26 84,-53 126,-80l-102 -256c-49,33 -96,69 -143,104zm437 -241l41 271c12,-4 23,-8 35,-12 47,-14 97,-22 146,-23l41 -284c-90,8 -178,23 -263,48z"/>
   <path class="fil4" d="M13241 16716c198,-72 450,-161 645,-31 93,62 128,174 191,261 44,61 101,111 169,144 145,71 324,61 470,-1 192,-82 334,-248 526,-331 225,-97 475,-112 717,-93 -12,-13 -23,-25 -34,-38 -33,129 -65,259 -97,388 10,3 19,6 29,10 -121,-129 -308,-145 -469,-89 -212,74 -380,234 -587,320 -209,86 -431,98 -636,-7 -104,-54 -196,-131 -273,-219 -56,-65 -107,-133 -169,-192 -116,-114 -270,-186 -422,-90 -141,90 -244,272 -236,441 9,166 142,267 297,291 178,27 385,19 521,160 184,190 -25,432 -191,539 -214,138 -464,219 -717,243 12,12 25,23 38,35 -13,-67 -26,-134 -38,-201 -9,-44 -9,-51 39,-53 34,-1 67,-3 101,-7 121,-15 240,-50 351,-102 143,-67 448,-255 224,-416 -158,-113 -369,-97 -549,-143 -116,-30 -218,-93 -253,-213 -28,-97 -13,-204 28,-296 111,-251 403,-339 652,-379 14,-2 -17,-46 -34,-43 -205,33 -423,93 -570,249 -117,126 -171,324 -103,486 69,162 230,229 392,257 95,16 191,24 284,47 48,13 97,30 140,56 91,56 44,146 -14,202 -92,90 -221,153 -341,195 -128,45 -262,66 -397,65 -4,0 -4,5 -4,8 17,87 33,174 50,261 2,14 22,36 38,35 210,-20 415,-79 602,-177 157,-81 343,-202 379,-389 28,-145 -62,-274 -181,-346 -65,-40 -138,-66 -211,-83 -89,-20 -180,-19 -270,-34 -114,-19 -205,-77 -219,-199 -10,-93 20,-190 66,-269 94,-165 284,-295 463,-173 79,54 138,132 199,204 58,69 119,134 190,189 145,114 321,189 508,182 243,-10 450,-142 649,-267 180,-114 475,-256 657,-63 3,3 26,23 29,10 32,-130 65,-259 97,-389 3,-13 -21,-37 -34,-38 -209,-17 -422,-10 -623,54 -94,30 -183,73 -266,128 -91,61 -174,133 -267,191 -155,96 -362,139 -535,61 -185,-84 -208,-317 -383,-417 -205,-119 -443,-39 -647,39 -13,6 16,41 29,37l0 0z"/>
   <path class="fil14" d="M6535 15695c4969,-566 9238,-1756 11526,-2828 88,-41 178,-91 274,-81 100,10 183,77 255,147 714,693 865,1892 346,2740 -3796,448 -7524,1457 -11028,2984 -64,28 -130,56 -200,54 -69,-1 -133,-32 -193,-66 -487,-273 -832,-764 -986,-1300 -155,-536 -129,-1114 10,-1654l-4 4z"/>
   <path class="fil15" d="M7355 15812l226 307 632 -48c0,0 -178,437 -421,469 0,0 356,518 388,1004l11058 -3169c-38,-532 -255,-1053 -635,-1429 -935,455 -3504,1650 -5340,1975 -2282,405 -5908,891 -5908,891z"/>
   <path class="fil16" d="M8213 17689l11022 -2946c-15,174 -50,345 -105,510l-5668 1243 -5638 1825 0 -632 389 0z"/>
   <path class="fil4" d="M6540 15719c1219,-135 2433,-317 3640,-539 1088,-200 2171,-435 3243,-710 915,-235 1823,-500 2716,-807 377,-130 750,-267 1120,-416 166,-67 332,-136 496,-208 76,-33 152,-67 228,-102 103,-47 221,-129 337,-125 139,4 253,142 338,237 77,86 145,177 206,274 126,202 218,424 275,655 111,452 88,942 -85,1376 -42,106 -94,208 -153,306 10,-5 19,-9 29,-14 -1000,118 -1995,274 -2983,469 -984,194 -1962,426 -2929,696 -969,270 -1928,577 -2874,921 -472,171 -940,352 -1405,541 -232,95 -464,192 -694,291 -110,47 -250,139 -373,116 -106,-19 -209,-95 -295,-156 -780,-551 -1015,-1566 -875,-2467 19,-121 44,-241 74,-360 9,-35 -65,-48 -74,-12 -138,541 -166,1120 -10,1661 127,443 381,854 742,1144 164,131 380,300 601,228 127,-42 250,-105 373,-157 131,-56 263,-112 395,-166 524,-217 1053,-422 1587,-616 1078,-392 2174,-736 3283,-1031 1096,-292 2206,-537 3324,-733 567,-99 1136,-186 1707,-260 138,-18 276,-35 414,-51 55,-7 61,-31 88,-78 29,-51 55,-104 80,-157 88,-194 146,-401 175,-612 56,-421 -4,-857 -171,-1247 -82,-193 -192,-375 -327,-536 -133,-160 -313,-364 -544,-305 -96,24 -186,77 -276,119 -72,33 -144,65 -216,97 -153,67 -307,132 -462,195 -346,140 -696,271 -1048,394 -820,286 -1654,535 -2493,758 -983,261 -1976,487 -2974,684 -1109,218 -2224,398 -3344,546 -292,38 -584,74 -876,109 -42,5 -27,52 10,48l0 0z"/>
   <path class="fil17" d="M6517 15703c383,19 769,251 969,578 184,-32 368,-65 552,-97 -104,130 -250,226 -411,269 236,483 358,1020 354,1557 113,-13 226,-26 339,-39 -88,43 -176,87 -264,131 -29,14 -59,30 -78,56 -19,27 -23,60 -28,92 -28,192 -127,414 -320,433 -107,10 -208,-49 -295,-112 -431,-309 -752,-770 -891,-1282 -139,-513 -142,-1106 73,-1592l0 6z"/>
   <path class="fil18" d="M7122 17775c0,0 36,-734 172,-309l209 -72c0,0 -20,-387 -317,-310 -194,51 -64,691 -64,691z"/>
   <path class="fil19" d="M7526 17451c0,0 0,-340 -216,-437l-97 54c0,0 157,-54 249,416l64 -33z"/>
   <path class="fil19" d="M6676 17012c0,0 -72,-906 316,-942 389,-36 756,1137 756,1137 0,0 224,873 -161,950 -386,78 0,0 0,0 0,0 290,-361 103,-965 -187,-604 -460,-1050 -684,-1022 -223,29 -330,842 -330,842z"/>
   <path class="fil19" d="M7686 18008l295 -105c0,10 0,21 0,32 -55,75 -198,227 -458,224 0,0 147,8 163,-151z"/>
   <path class="fil18" d="M6783 17631c0,0 495,925 1198,298 0,27 1,54 0,81 113,-13 226,-26 339,-39 -88,43 -176,87 -264,131 -29,14 -59,30 -78,56 -19,27 -23,60 -28,92 -28,192 -127,414 -320,433 -9,0 -18,1 -26,1 -26,-6 -50,-16 -72,-29 -288,-175 -612,-635 -749,-1024z"/>
   <path class="fil18" d="M6697 17444c0,0 -439,-590 -180,-1741 90,4 180,21 267,47 -74,228 -308,1044 -87,1694z"/>
   <path class="fil4" d="M6525 15727c377,31 734,236 934,559 9,15 27,27 45,24 184,-32 367,-65 551,-97 -15,-17 -31,-35 -47,-52 -103,127 -241,219 -399,263 -17,5 -17,21 -10,35 233,479 351,1009 349,1541 0,24 30,43 51,40 113,-13 226,-26 339,-39 -15,-20 -29,-39 -43,-58 -78,39 -157,78 -235,117 -60,30 -115,56 -134,125 -17,61 -21,123 -40,183 -20,60 -46,119 -84,169 -94,125 -234,142 -369,68 -127,-70 -244,-174 -347,-276 -428,-421 -663,-988 -701,-1585 -22,-350 24,-706 165,-1030 13,-29 -50,-68 -66,-34 -256,587 -218,1310 28,1894 116,276 284,531 493,745 104,108 219,209 344,293 113,76 251,137 384,78 126,-56 195,-197 229,-323 23,-83 12,-180 97,-226 93,-52 190,-96 285,-143 35,-17 -20,-60 -42,-57 -113,13 -226,26 -338,39 17,13 34,27 51,40 2,-544 -122,-1083 -360,-1572 -3,12 -7,23 -10,35 167,-47 313,-142 422,-277 20,-24 -25,-56 -47,-52 -184,33 -367,65 -551,98 15,8 30,16 45,24 -212,-339 -602,-583 -1005,-598 -37,-1 -9,47 16,49l0 0z"/>
   <path class="fil4" d="M7695 17667c-3,149 -11,366 -185,414 -176,49 -303,-82 -355,-237 -62,-184 -60,-394 -8,-580 12,-41 26,-83 55,-116 10,-12 20,-24 34,-31 39,-20 61,-2 86,27 30,35 45,95 59,139 19,58 32,117 41,178 1,5 5,12 12,20 -1,14 9,27 33,28 6,3 11,3 13,0 68,0 141,-15 209,-29 5,62 8,124 6,187zm-133 -716c54,147 96,299 118,454 -68,8 -140,17 -205,37 -11,-82 -35,-161 -70,-237 -26,-55 -60,-120 -113,-155 90,-34 178,-69 270,-99zm210 715c-1,-74 -7,-147 -17,-220 1,-8 0,-16 -4,-23 -22,-142 -61,-281 -109,-416 -76,-211 -173,-420 -289,-611 -74,-123 -201,-284 -364,-268 -214,21 -266,328 -298,492 -25,127 -39,255 -43,384 -33,-402 37,-840 188,-1220 5,-14 -67,-22 -68,-19 -375,794 -228,1769 306,2453 129,166 281,321 450,446 30,22 36,14 8,-9 -372,-315 -653,-710 -794,-1177 7,1 -14,-44 -16,-54 -47,-341 -9,-681 116,-1007 49,-128 170,-271 320,-181 135,81 207,276 273,411 38,77 73,157 105,237 -2,0 -3,1 -5,1 -131,39 -389,167 -386,172 -87,81 -106,303 -109,381 -9,190 26,398 140,554 92,126 253,221 411,165 191,-67 187,-324 185,-491z"/>
   <path class="fil11" d="M12663 14591c276,213 599,977 378,2245 38,0 228,-59 291,-65 144,-12 99,-134 130,-275 75,-340 103,-692 52,-1035 -52,-344 -202,-688 -430,-951 -85,25 -335,57 -421,81z"/>
   <path class="fil13" d="M12838 14797l439 -15c24,43 47,87 69,132l-448 -6c-20,-40 -40,-77 -60,-111zm180 438l449 5c20,73 35,146 46,220l-449 -19c-13,-73 -29,-142 -46,-206zm93 626l428 12c-1,64 -4,128 -10,192l-415 -36c0,-57 -1,-113 -3,-168zm-16 574l385 -26c-5,29 -11,58 -18,87 -6,28 -9,55 -11,81l-376 35c8,-60 15,-119 20,-177z"/>
   <path class="fil4" d="M12642 14610c146,131 236,317 299,500 107,312 141,646 136,974 -3,253 -30,505 -73,754 -3,19 21,29 35,28 58,-3 117,-25 172,-39 32,-8 63,-16 96,-22 31,-6 64,-7 93,-21 55,-26 74,-77 81,-133 12,-90 24,-178 41,-268 80,-430 84,-886 -66,-1302 -77,-214 -191,-415 -339,-588 -10,-12 -26,-15 -41,-11 -138,38 -283,42 -421,82 -44,13 -28,66 16,55 139,-35 283,-42 421,-80 -13,-4 -27,-7 -41,-11 249,290 398,657 438,1036 23,210 16,423 -11,632 -13,102 -33,202 -53,302 -12,64 -3,138 -26,199 -22,57 -120,53 -172,66 -59,14 -123,40 -184,43 11,9 23,18 35,28 71,-415 99,-841 44,-1259 -35,-270 -104,-546 -245,-781 -50,-84 -110,-166 -192,-221 -24,-16 -70,13 -43,37l0 0z"/>
   <path class="fil11" d="M13400 14443c390,654 508,1520 283,2247 -96,40 -210,58 -297,65 37,-235 90,-537 85,-775 -14,-714 -231,-1213 -408,-1470 140,-54 201,-72 329,-81l8 14z"/>
   <path class="fil13" d="M13172 14693l268 -180c23,42 45,85 67,128l-265 200c-23,-53 -47,-102 -70,-148zm151 364l269 -221c21,53 40,107 58,161l-277 236c-15,-62 -32,-120 -50,-176zm110 474l301 -220c19,91 33,182 44,275l-318 171c-7,-78 -16,-154 -27,-226zm37 548l326 -168c1,67 -2,134 -6,200l-335 168c7,-68 13,-136 15,-200zm-54 485l340 -175c-13,70 -28,140 -46,208l-316 108c7,-46 15,-93 22,-141z"/>
   <path class="fil4" d="M13370 14449c156,299 279,603 340,936 60,326 67,663 11,989 -15,93 -36,184 -62,274 -9,30 -10,37 -40,47 -26,8 -53,16 -81,22 -50,11 -102,18 -153,22 13,5 26,9 39,13 27,-175 57,-350 73,-527 17,-178 12,-356 -6,-535 -30,-298 -99,-595 -220,-870 -48,-111 -104,-218 -173,-317 -5,6 -10,13 -15,19 102,-39 200,-68 310,-78 41,-4 39,-31 -3,-29 -122,6 -233,40 -348,83 -6,3 -22,10 -15,20 134,195 226,419 290,646 90,322 135,669 111,1003 -15,199 -48,395 -79,591 -2,14 34,13 39,13 86,-8 171,-22 254,-47 34,-10 70,-14 83,-49 14,-40 23,-83 34,-125 41,-168 64,-340 72,-512 16,-359 -35,-721 -149,-1061 -63,-187 -143,-375 -252,-540 -10,-15 -70,-7 -60,12l0 0z"/>
   <path class="fil20" d="M8088 8791c-989,170 -1978,339 -2967,509 -341,58 -714,135 -931,405 -250,314 -197,764 -127,1160 39,216 87,450 252,597 119,106 281,149 437,187 2263,555 4565,934 6864,1313 210,35 427,69 632,15 253,-67 452,-258 638,-442 356,-352 712,-703 1068,-1054 84,-83 173,-177 183,-294 11,-118 -67,-262 -174,-211 -38,-270 -120,-528 -87,-799 32,-271 146,-543 361,-710 49,-38 105,-73 135,-128 29,-55 16,-139 -44,-159 -27,-9 -57,-2 -86,4 -176,37 -357,32 -537,27 -1605,-46 -3213,-93 -4803,-314 -259,-36 -521,-23 -774,-90l-40 -16z"/>
   <path class="fil21" d="M4516 9461c1119,287 4500,1178 4982,1583 0,0 213,259 563,0 350,-259 2373,-1263 3697,-1582 347,-84 105,-175 -441,-262 -1476,-44 -2953,-100 -4415,-303 -259,-36 -521,-23 -774,-90l-40 -16c-989,170 -1978,339 -2967,509 -204,35 -419,76 -605,161z"/>
   <path class="fil21" d="M4095 11028l7944 1568 1924 -1627 0 7c107,-51 185,93 174,211 -10,117 -99,211 -183,294 -356,351 -712,702 -1068,1054 -186,184 -385,375 -638,442 -205,54 -422,20 -632,-15 -2299,-379 -4601,-758 -6864,-1313 -156,-38 -318,-81 -437,-187 -124,-110 -182,-270 -220,-434z"/>
   <path class="fil22" d="M14347 9189l-1882 1185c0,0 -350,153 -502,731 -97,365 -400,1609 160,1895 42,-5 84,-12 125,-23 253,-67 452,-258 638,-442 356,-352 712,-703 1068,-1054 84,-83 173,-177 183,-294 11,-118 -67,-262 -174,-211 -38,-270 -120,-528 -87,-799 32,-271 146,-543 361,-710 49,-38 105,-73 135,-128 26,-49 18,-120 -25,-150z"/>
   <path class="fil22" d="M4011 10188c1630,312 7860,1525 7860,1525l-15 426 -7823 -1459c-23,-164 -37,-332 -22,-492z"/>
   <path class="fil4" d="M8096 8783c-629,107 -1257,215 -1886,323 -314,53 -629,107 -943,161 -234,40 -470,75 -693,158 -210,77 -401,204 -509,405 -117,217 -124,472 -102,711 23,238 54,503 152,723 108,241 321,331 564,392 1215,303 2446,547 3677,771 613,112 1226,218 1840,321 309,52 619,103 928,154 281,47 571,119 857,117 234,-2 453,-75 642,-213 229,-167 422,-387 623,-585 224,-222 449,-443 673,-665 86,-85 188,-169 241,-281 44,-90 44,-224 -38,-295 -55,-48 -135,-26 -197,-3 30,-4 60,-8 90,-12 -40,-273 -122,-544 -84,-822 30,-225 117,-451 279,-615 66,-67 179,-118 217,-208 30,-72 -2,-154 -84,-157 -49,-2 -97,13 -144,21 -85,13 -170,17 -255,17 -140,0 -280,-6 -419,-10 -1146,-33 -2293,-71 -3436,-176 -317,-30 -634,-64 -950,-105 -156,-21 -310,-41 -467,-52 -166,-11 -332,-23 -494,-64 -20,-5 -46,3 -65,8 -5,1 -42,16 -34,18 264,67 539,59 809,95 281,39 563,72 846,101 565,58 1132,97 1699,127 573,30 1146,50 1720,67 270,8 544,28 815,16 58,-2 115,-7 172,-15 53,-8 135,-42 175,9 76,99 -51,196 -119,248 -195,150 -308,378 -356,616 -61,306 26,601 72,902 2,14 81,-9 89,-12 -33,13 -1,13 19,31 18,16 31,35 41,57 22,45 29,98 23,148 -17,124 -117,216 -202,300 -206,204 -413,408 -619,611 -195,193 -385,392 -588,576 -93,84 -192,162 -303,219 -156,80 -321,84 -492,65 -288,-32 -576,-91 -863,-138 -285,-48 -570,-95 -855,-143 -569,-96 -1138,-195 -1707,-298 -1136,-207 -2269,-434 -3392,-703 -235,-56 -532,-88 -713,-264 -161,-156 -202,-394 -239,-605 -75,-430 -129,-964 262,-1264 195,-150 444,-204 681,-247 284,-50 567,-97 851,-146 580,-100 2136,-342 2281,-368 24,-4 -38,-30 -90,-22l0 0z"/>
   <path class="fil23" d="M14190 9509c-489,262 -924,518 -1391,817 -122,78 -244,158 -348,259 -233,226 -359,544 -409,865 -50,321 -30,648 -10,972 4,80 10,162 44,234 34,72 105,132 185,131 78,-2 143,-61 199,-117 494,-492 977,-995 1450,-1508 27,-29 54,-59 66,-97 19,-54 3,-113 -11,-169 -114,-474 -31,-977 229,-1390l-4 3z"/>
   <path class="fil24" d="M13961 10067c-446,314 -1445,1046 -1920,1394l1 -11c50,-321 176,-639 409,-865 104,-101 226,-181 348,-259 467,-299 902,-555 1391,-817l4 -3c-110,174 -188,364 -233,561z"/>
   <path class="fil24" d="M13932 10224c-163,101 -324,206 -482,313 -337,227 -664,470 -979,726 -153,125 -306,252 -451,385 -1,9 -2,17 -2,26 293,-247 585,-494 892,-723 325,-243 661,-472 1005,-685l13 -8c1,-12 3,-23 4,-34z"/>
   <path class="fil24" d="M13916 10419c-183,120 -364,244 -544,369 -338,233 -671,473 -998,722 -122,92 -242,186 -362,281l0 23c593,-459 1200,-898 1826,-1312 26,-17 51,-34 77,-51 0,-11 1,-22 1,-32z"/>
   <path class="fil24" d="M13918 10573c-154,98 -305,199 -455,302 -365,249 -721,513 -1066,789 -130,105 -259,211 -386,320l1 24c608,-506 1241,-980 1908,-1408 -1,-9 -2,-18 -2,-27z"/>
   <path class="fil24" d="M13923 10647c-572,373 -1116,790 -1628,1243 -94,83 -187,168 -279,254l1 20c571,-528 1186,-1011 1831,-1442 26,-17 52,-35 78,-52 -1,-8 -2,-15 -3,-23z"/>
   <path class="fil24" d="M13938 10757c-544,361 -1063,758 -1555,1187 -122,107 -242,216 -360,326l1 25c551,-512 1141,-983 1761,-1409 52,-35 104,-71 156,-106 -1,-8 -2,-15 -3,-23z"/>
   <path class="fil24" d="M13960 10875c-514,388 -1006,806 -1477,1244 -149,139 -296,280 -440,424 1,5 2,10 3,15 607,-590 1246,-1147 1920,-1660l-1 -2c-1,-7 -3,-14 -5,-21zm14 59c-467,422 -917,865 -1354,1317 -159,163 -315,330 -469,498 3,2 7,4 10,7 562,-598 1144,-1176 1747,-1733 23,-22 47,-44 71,-66 -1,-8 -3,-16 -5,-23z"/>
   <path class="fil4" d="M14158 9510c-526,275 -1049,575 -1538,911 -225,155 -397,352 -504,605 -108,254 -147,531 -154,805 -3,158 3,316 12,473 7,133 -5,301 80,413 63,81 153,103 249,76 116,-32 193,-120 275,-202 439,-440 870,-887 1292,-1343 51,-55 123,-113 152,-183 27,-64 6,-132 -9,-196 -35,-152 -51,-307 -46,-463 9,-323 107,-636 277,-911 4,-5 -85,-2 -100,22 -131,211 -219,444 -258,689 -41,258 -10,499 40,753 12,66 7,123 -35,178 -45,58 -101,111 -151,165 -97,105 -195,209 -292,312 -205,217 -411,431 -619,644 -103,105 -207,210 -311,314 -46,46 -91,94 -139,138 -32,29 -71,58 -116,52 -38,-5 -77,-37 -101,-66 -82,-97 -78,-242 -85,-362 -8,-143 -16,-285 -17,-428 -2,-525 111,-1085 547,-1425 246,-191 528,-348 795,-508 270,-161 544,-314 819,-466 34,-18 -50,-4 -63,3l0 0z"/>
   <path class="fil25" d="M4120 7435c907,-84 1803,-266 2713,-316 693,-38 1388,1 2082,40 361,20 722,41 1083,61 1207,68 2417,136 3612,321 153,24 318,56 423,170 90,98 117,237 131,370 24,227 22,457 -6,684 -30,236 -98,483 -275,642 -141,125 -330,177 -513,224 -1003,263 -2007,526 -3024,729 -216,43 -435,83 -655,80 -175,-3 -349,-27 -520,-63 -1560,-330 -3059,-763 -4686,-1252 -115,-35 -235,-137 -213,-255 22,-119 173,-155 293,-164 18,-360 20,-756 38,-1116 -182,-30 -527,-10 -499,-152l16 -3z"/>
   <path class="fil26" d="M4181 7429l5545 830c0,0 2893,-603 3841,-724l43 6c153,24 318,56 423,170 90,98 117,237 131,370 24,227 22,457 -6,684 -30,236 -98,483 -275,642 -141,125 -330,177 -513,224 -1003,263 -2007,526 -3024,729 -216,43 -435,83 -655,80 -175,-3 -349,-27 -520,-63 -1560,-330 -3059,-763 -4686,-1252 -115,-35 -235,-137 -213,-255 22,-119 173,-155 293,-164 18,-360 20,-756 38,-1116 -182,-30 -527,-10 -499,-152l16 -3c20,-2 41,-4 61,-6z"/>
   <path class="fil25" d="M9706 8460c0,0 3778,-900 4022,-748 243,152 243,152 243,152 0,0 107,243 91,685 -15,441 -94,600 -350,821 -334,289 -3088,822 -4108,989 0,0 -4822,-1123 -5332,-1489 22,-119 173,-155 293,-164 6,-116 10,-236 14,-357l4766 732 361 -621z"/>
   <path class="fil4" d="M4143 7453c730,-65 1453,-196 2182,-271 752,-77 1503,-61 2256,-21 1478,79 2964,135 4433,318 184,23 367,48 550,76 157,24 336,48 440,184 96,127 107,303 118,456 12,183 7,368 -15,550 -37,300 -134,603 -420,749 -146,74 -311,109 -469,150 -173,45 -347,91 -521,136 -714,185 -1430,363 -2153,514 -369,77 -734,155 -1113,106 -352,-45 -702,-140 -1047,-221 -690,-163 -1375,-345 -2057,-537 -346,-98 -693,-199 -1038,-301 -172,-51 -344,-102 -515,-153 -144,-43 -390,-70 -444,-239 -53,-163 142,-213 260,-223 8,0 28,-4 28,-15 18,-372 20,-744 38,-1116 1,-15 -27,-22 -37,-23 -93,-15 -187,-18 -280,-29 -61,-6 -194,-11 -182,-100 3,-28 -102,-40 -106,-10 -12,90 99,119 166,134 122,26 248,22 370,41 -12,-7 -24,-15 -37,-23 -18,372 -19,745 -38,1117 10,-5 19,-11 28,-16 -105,9 -256,31 -308,139 -57,117 47,229 144,281 70,38 150,55 226,78 96,28 192,57 288,86 189,56 379,112 569,168 713,209 1429,411 2150,595 366,93 733,182 1102,265 354,80 713,174 1078,162 367,-13 734,-109 1091,-187 385,-83 768,-174 1150,-270 382,-95 764,-194 1145,-293 296,-78 656,-130 850,-395 188,-258 210,-624 209,-932 -1,-168 -5,-351 -59,-512 -47,-139 -145,-232 -280,-284 -151,-58 -318,-72 -477,-95 -193,-28 -386,-53 -579,-76 -387,-45 -775,-80 -1163,-110 -784,-61 -1569,-100 -2353,-144 -783,-45 -1568,-102 -2352,-71 -777,31 -1545,164 -2315,262 -186,24 -372,46 -559,64 -62,6 18,39 46,36l0 0z"/>
   <path class="fil13" d="M4639 7623c1701,197 3362,680 5067,837 139,13 281,23 419,4 118,-16 231,-53 344,-89 1006,-319 2043,-538 3092,-655 87,-9 183,-15 252,38 59,46 81,125 96,198 52,257 55,523 10,781 -28,160 -77,322 -181,446 -118,142 -294,221 -469,279 -503,168 -3501,781 -3599,783 -69,1 -138,-15 -205,-31 -1654,-390 -3313,-781 -4904,-1379 19,-385 38,-769 57,-1154l21 -58z"/>
   <path class="fil27" d="M9619 10238l86 -1778 1 0c139,13 281,23 419,4 118,-16 231,-53 344,-89 1006,-319 2043,-538 3092,-655 87,-9 183,-15 252,38 59,46 81,125 96,198 52,257 55,523 10,781 -28,160 -77,322 -181,446 -118,142 -294,221 -469,279 -503,168 -3501,781 -3599,783 -17,0 -34,-1 -51,-2l0 -5z"/>
   <path class="fil28" d="M4567 8837c204,-59 445,-130 695,-205 928,241 1870,438 2815,602 269,48 540,96 811,131 6,1 7,-9 2,-10 -245,-44 -491,-80 -736,-122 -240,-41 -480,-85 -719,-131 -479,-91 -955,-192 -1430,-301 -243,-56 -486,-114 -729,-173 146,-44 294,-88 438,-132 880,230 1772,411 2671,542 264,38 529,75 794,101 8,1 8,-11 0,-12 -483,-63 -966,-126 -1446,-209 -471,-81 -940,-176 -1405,-284 -199,-46 -398,-93 -596,-144 157,-47 310,-94 452,-137 741,202 1492,360 2251,472 227,34 455,67 683,88 9,1 8,-13 0,-14 -414,-55 -828,-108 -1239,-181 -402,-72 -802,-156 -1199,-252 -158,-38 -316,-78 -474,-120 446,-135 781,-239 781,-239l2652 526 87 7 4187 -667 -4 -17c-15,-73 -37,-152 -96,-198 -69,-53 -165,-47 -252,-38 -1049,117 -2086,336 -3092,655 -113,36 -226,73 -344,89 -138,19 -280,9 -419,-4 -1705,-157 -3366,-640 -5067,-837l-21 58c-19,385 -38,769 -57,1154l6 2z"/>
   <path class="fil28" d="M13210 8168c-443,63 -883,154 -1319,249 -438,97 -872,204 -1303,324 -242,67 -482,139 -722,214 -3,1 -2,6 1,5 856,-262 1727,-477 2605,-649 246,-49 493,-90 740,-136 4,-1 2,-8 -2,-7z"/>
   <path class="fil28" d="M13669 8242c-254,43 -506,100 -757,157 -253,57 -506,117 -758,181 -499,126 -995,265 -1487,417 -279,85 -558,173 -832,273 -6,2 -4,11 2,9 494,-156 985,-316 1483,-457 496,-141 995,-268 1497,-383 284,-65 571,-121 855,-185 9,-1 5,-14 -3,-12z"/>
   <path class="fil28" d="M13696 8613c-252,24 -503,67 -753,110 -254,43 -508,92 -760,146 -502,109 -999,238 -1490,389 -279,86 -556,178 -830,279 -5,3 -3,11 3,9 485,-168 974,-324 1471,-456 496,-132 998,-242 1504,-332 285,-51 571,-87 857,-133 7,-1 5,-13 -2,-12z"/>
   <path class="fil28" d="M12949 8945c-389,56 -776,139 -1159,226 -384,88 -765,187 -1143,298 -211,62 -421,127 -629,199 -6,2 -3,11 3,9 752,-234 1509,-443 2283,-597 215,-44 432,-80 648,-121 9,-2 5,-15 -3,-14z"/>
   <path class="fil28" d="M13775 9105c-497,54 -992,133 -1483,225 -495,93 -988,204 -1476,330 -274,72 -549,146 -819,235 -5,2 -3,10 3,8 482,-130 962,-266 1449,-378 489,-111 982,-206 1478,-285 282,-44 565,-81 848,-118 10,-2 11,-18 0,-17z"/>
   <path class="fil28" d="M9424 9800c-294,-73 -592,-132 -888,-197 -297,-64 -594,-128 -890,-192 -594,-127 -1188,-253 -1782,-378 -337,-70 -674,-139 -1011,-205 -3,-1 -5,4 -2,5 594,128 1188,251 1782,377 593,126 1187,253 1780,382 336,73 671,154 1008,219 8,1 11,-10 3,-11z"/>
   <path class="fil28" d="M9148 8735c-301,-36 -600,-79 -898,-142 -5,-1 -7,7 -2,8 295,69 598,122 900,144 6,0 6,-9 0,-10z"/>
   <path class="fil28" d="M9498 9593c-174,-19 -345,-39 -516,-76 -7,-2 -10,9 -3,11 170,37 345,67 519,74 6,1 5,-8 0,-9z"/>
   <path class="fil28" d="M9226 9939c-240,-35 -479,-66 -717,-113 -5,-1 -7,7 -2,8 236,48 477,93 717,113 5,1 6,-7 2,-8z"/>
   <path class="fil4" d="M4641 7666c1662,201 3283,660 4950,828 190,19 385,43 575,12 188,-31 369,-102 551,-157 398,-120 802,-224 1208,-313 408,-89 819,-161 1232,-218 101,-14 202,-27 303,-39 89,-10 216,-43 301,-3 89,42 101,174 114,258 17,106 26,212 26,319 1,197 -20,403 -88,589 -69,191 -207,323 -389,407 -140,65 -289,104 -437,142 -388,99 -779,184 -1170,269 -451,98 -903,193 -1355,285 -258,52 -521,122 -784,152 -100,11 -204,-26 -300,-48 -200,-47 -400,-95 -599,-142 -409,-98 -817,-197 -1224,-301 -809,-207 -1614,-434 -2404,-705 -193,-66 -386,-136 -578,-208 13,17 26,34 38,50 19,-385 38,-770 57,-1154 2,-54 -97,-80 -100,-16 -19,385 -38,769 -57,1154 -1,22 20,43 39,50 1602,601 3275,1011 4942,1388 130,30 218,24 342,1 144,-27 288,-56 432,-85 442,-88 883,-180 1324,-275 434,-92 867,-186 1298,-291 129,-32 259,-63 386,-103 139,-44 280,-102 397,-192 141,-110 224,-266 269,-438 50,-189 67,-391 59,-586 -4,-96 -15,-192 -31,-286 -15,-84 -31,-174 -85,-241 -111,-138 -299,-99 -451,-81 -212,25 -423,54 -633,88 -837,132 -1650,343 -2460,589 -213,64 -414,70 -635,50 -214,-20 -428,-45 -641,-73 -426,-58 -850,-131 -1273,-211 -842,-158 -1680,-340 -2527,-468 -208,-31 -416,-59 -625,-82 -65,-8 -51,78 3,85l0 0z"/>
   <path class="fil29" d="M7135 6559c-219,-127 -474,-173 -723,-217 -997,-175 -1994,-350 -2991,-525 -36,-121 -73,-241 -110,-361 2238,-887 4416,-1928 6511,-3114 101,-57 207,-116 323,-119 113,-3 229,35 321,101 812,580 3547,2644 4177,3156 -18,102 -36,204 -54,305 -2361,376 -4721,752 -7082,1127 -58,9 -121,18 -171,-12 -107,-61 -94,-295 -212,-329l11 -12z"/>
   <path class="fil30" d="M3421 5817l6782 -3248 -24 -346c-11,0 -23,0 -34,0 -116,3 -222,62 -323,119 -2095,1186 -4273,2227 -6511,3114 37,120 74,240 110,361z"/>
   <path class="fil31" d="M10203 2569l4386 3216 1 -4 1 -5 1 -5 1 -5 1 -4 0 -5 1 -5 1 -5 1 -5 1 -4 1 -5 0 -5 1 -5 1 -4 1 -5 1 -5 1 -5 0 -4 1 -5 1 -5 1 -5 1 -5 1 -4 0 -5 1 -5 1 -5 1 -4 1 -5 1 -5 0 -5 1 -5 1 -4 1 -5 1 -5 1 -5 0 -4 1 -5 1 -5 1 -5 1 -5 1 -4 0 -5 1 -5 1 -5 1 -4 1 -5 1 -5 0 -5 1 -4 1 -5 1 -5 1 -5 1 -5 0 -4 1 -5 1 -5 1 -5 1 -4 1 -5 0 -5 1 -5 1 -5 1 -4 1 -5 -1814 -1397c-925,-700 -1925,-1446 -2363,-1759 -91,-65 -205,-103 -318,-101l55 346z"/>
   <path class="fil32" d="M4963 6087c864,-765 3639,-2915 6330,-1677 1080,497 1702,1053 2051,1574l-5621 894 -463 -82c-37,-90 -57,-203 -136,-225l11 -12c-219,-127 -474,-173 -723,-217l-1449 -255z"/>
   <path class="fil4" d="M11456 6244c-1040,166 -2081,331 -3121,497 -289,46 -578,100 -868,138 -73,10 -119,2 -151,-66 -18,-39 -29,-80 -45,-120 -20,-54 -48,-101 -93,-131 -1,-9 -7,-17 -22,-26 -187,-107 -394,-162 -604,-202 -246,-47 -493,-88 -740,-131 -508,-90 -1017,-179 -1525,-269 -275,-48 -550,-97 -825,-145 -32,-103 -63,-206 -95,-309 1059,-420 2105,-874 3134,-1363 1036,-491 2055,-1016 3056,-1574 121,-67 240,-137 361,-202 135,-72 272,-108 419,-49 113,45 215,137 314,209 234,171 467,344 700,517 593,441 1184,886 1773,1334 465,353 931,705 1388,1069 26,20 51,41 77,62 -16,90 -31,180 -47,271 -1029,163 -2057,327 -3086,490zm3222 -782c-426,-346 -865,-675 -1301,-1007 -604,-460 -1210,-917 -1818,-1371 -249,-185 -498,-370 -748,-553 -247,-181 -516,-433 -845,-310 -135,50 -258,133 -382,203 -126,70 -253,140 -379,210 -254,139 -508,276 -764,411 -519,275 -1043,540 -1572,797 -1048,509 -2113,983 -3193,1421 -134,54 -268,108 -403,161 -13,6 -15,20 -11,32 37,120 74,241 111,361 6,19 33,32 51,35 633,111 1266,222 1899,333 314,55 628,110 942,165 274,48 561,84 812,212 -1,14 10,31 36,40 59,22 77,144 99,196 25,60 61,113 123,139 100,42 217,7 319,-9 130,-21 260,-41 390,-62 530,-84 1060,-169 1591,-253 1060,-169 2120,-337 3181,-506 600,-95 1200,-191 1801,-286 7,-2 21,-9 22,-17 18,-102 36,-204 54,-306 2,-15 -4,-26 -15,-36z"/>
   <path class="fil33" d="M5922 7833c-136,-520 -123,-1093 -132,-1631 -2,-104 0,-211 41,-306 60,-138 193,-227 320,-306 901,-561 1886,-1022 2938,-1159 1052,-138 2181,79 3003,750 127,651 154,1322 80,1981 -9,79 -19,160 -54,231 -37,77 -98,138 -159,197 -382,376 -784,763 -1296,921 -332,103 -687,100 -1035,82 -1259,-64 -2508,-313 -3695,-737l-11 -23z"/>
   <path class="fil34" d="M6453 5408c-62,513 -174,1751 52,2637 -192,-59 -383,-122 -572,-189l-11 -23c-136,-520 -123,-1093 -132,-1631 -2,-104 0,-211 41,-306 60,-138 193,-227 320,-306 100,-62 200,-123 302,-182zm5185 2489c161,-963 -174,-2572 -316,-3182 276,120 535,274 770,466 127,651 154,1322 80,1981 -9,79 -19,160 -54,231 -37,77 -98,138 -159,197 -105,103 -211,207 -321,307z"/>
   <path class="fil35" d="M8699 4497c-25,768 -63,3778 905,3991 994,217 1245,-3204 1286,-3929 -578,-170 -1202,-206 -1801,-128 -131,17 -261,39 -390,66z"/>
   <path class="fil4" d="M5959 7852c-71,-291 -100,-591 -112,-890 -7,-150 -9,-299 -11,-448 -2,-149 -16,-304 2,-451 37,-298 347,-437 577,-574 248,-147 502,-285 762,-410 1010,-486 2139,-775 3260,-588 599,99 1175,333 1649,717 -12,-16 -25,-33 -37,-49 115,597 149,1208 97,1813 -12,138 -13,296 -85,418 -65,111 -176,199 -267,287 -184,179 -374,353 -584,501 -217,152 -456,272 -716,330 -292,65 -594,60 -891,45 -586,-30 -1170,-100 -1747,-209 -658,-125 -1307,-302 -1938,-527 -54,-19 1,67 31,78 1186,421 2432,672 3690,738 302,16 610,22 908,-43 269,-58 516,-182 741,-340 224,-157 424,-345 620,-536 97,-94 211,-187 263,-315 55,-134 55,-297 65,-440 24,-314 25,-630 4,-944 -11,-161 -28,-321 -50,-480 -11,-78 -24,-155 -37,-232 -11,-59 -11,-108 -55,-150 -189,-175 -438,-311 -668,-421 -238,-113 -489,-201 -745,-262 -1096,-264 -2232,-56 -3254,384 -274,117 -540,250 -800,394 -130,72 -259,147 -386,224 -112,68 -230,133 -327,221 -219,198 -170,496 -167,763 4,308 9,617 49,923 19,147 47,292 85,435 7,26 83,75 74,38l0 0z"/>
   <path class="fil36" d="M6573 3982c-568,-164 -1234,177 -1434,734 -122,340 -82,712 -102,1073 -45,786 -382,1581 -162,2337 57,196 151,383 173,586 32,290 -97,593 -329,770 86,121 260,168 395,108 134,-61 215,-222 182,-366 17,90 98,164 190,173 91,8 185,-49 219,-135 60,-153 -65,-310 -146,-453 -158,-280 -161,-621 -120,-940 41,-318 123,-634 118,-955 -5,-415 -153,-814 -230,-1222 -77,-408 -69,-868 193,-1190 238,-292 628,-403 993,-499l60 -21z"/>
   <path class="fil37" d="M5078 8289c-61,-293 -146,-580 -166,-880 -19,-296 19,-586 84,-874 68,-300 156,-616 92,-924 -2,-8 -14,-5 -13,3 47,287 -14,567 -79,846 -64,275 -112,548 -107,832 5,288 72,563 134,843 63,283 116,573 83,864 -24,215 -93,416 -178,611 11,3 22,4 33,5 68,-158 122,-323 152,-491 51,-279 21,-559 -35,-835z"/>
   <path class="fil37" d="M5222 8229c-52,-277 -159,-543 -185,-825 -25,-285 43,-566 102,-842 31,-151 59,-302 70,-456 11,-163 3,-326 -22,-487 -1,-6 -12,-5 -11,1 38,292 15,580 -43,866 -55,268 -128,537 -125,813 4,272 95,531 159,792 69,281 84,571 70,860 -7,162 -25,325 -52,485 -8,43 -16,86 -26,128 11,-7 22,-16 32,-24 3,-16 6,-32 8,-47 26,-137 44,-274 55,-412 22,-282 21,-573 -32,-852z"/>
   <path class="fil37" d="M5495 9397c-45,-99 -73,-206 -91,-313 -46,-278 -19,-562 -41,-842 -23,-281 -123,-547 -149,-826 -28,-296 33,-589 77,-880 43,-292 72,-602 -33,-885 -3,-8 -17,-5 -14,4 176,569 -94,1135 -60,1709 17,286 122,557 150,841 27,281 -1,565 39,845 16,112 44,232 90,343 7,2 15,3 23,4 3,0 6,0 9,0z"/>
   <path class="fil37" d="M5646 9343c-29,-53 -54,-108 -74,-165 -43,-129 -48,-260 -28,-394l0 -2c-7,-15 -15,-30 -21,-44 -2,10 -4,21 -5,31 -19,123 -21,244 11,364 22,80 54,156 94,228 8,-5 16,-11 23,-18zm-204 -1498c-21,-60 -40,-120 -52,-182 -58,-279 17,-562 70,-836 23,-120 39,-240 45,-361 -6,-31 -13,-62 -19,-92 -1,138 -19,275 -45,412 -50,267 -126,539 -90,813 13,105 47,205 84,303 1,-11 3,-22 4,-33l3 -24z"/>
   <path class="fil37" d="M5772 4053c-19,10 -38,22 -56,33 -202,128 -374,304 -483,518 -58,114 -104,244 -109,372 0,6 9,7 10,2 22,-116 48,-226 99,-333 50,-105 116,-203 193,-290 142,-160 321,-280 515,-365 -58,17 -114,38 -169,63z"/>
   <path class="fil37" d="M5977 3980c-282,128 -524,352 -678,616 -57,96 -104,200 -133,308 -2,6 8,9 10,2 67,-189 159,-364 290,-518 126,-148 280,-272 453,-362 47,-24 96,-46 145,-66 -29,6 -59,12 -87,20z"/>
   <path class="fil37" d="M6442 4022c-107,-8 -216,0 -322,22 73,-40 147,-75 226,-101 -16,-1 -31,-2 -47,-2 -75,30 -146,67 -212,110 -34,8 -68,18 -101,29 -245,82 -456,249 -598,464 -81,124 -136,258 -164,403 -2,8 11,12 13,3 56,-241 189,-465 376,-628 204,-178 469,-274 739,-276l2 0c29,-8 59,-16 88,-24zm-268 -77c-118,42 -229,99 -326,178 -6,5 3,13 9,9 110,-85 238,-143 370,-184 8,-2 16,-5 23,-7 -25,1 -51,2 -76,4z"/>
   <path class="fil37" d="M5143 8264c-19,-151 -36,-304 -91,-446 -1,-3 -5,-2 -4,1 38,131 57,265 75,400 18,137 34,275 44,413 19,263 13,530 -54,787 -17,65 -39,129 -64,191 7,-1 14,-3 21,-5 61,-155 94,-325 110,-488 27,-285 -1,-571 -37,-853z"/>
   <path class="fil37" d="M5019 9189c-42,93 -78,189 -123,282 -18,37 -36,75 -55,111 5,3 10,5 15,8 21,-39 40,-77 58,-117 44,-90 86,-184 116,-280 1,-6 -8,-10 -11,-4z"/>
   <path class="fil37" d="M5558 9390c-35,-85 -63,-171 -81,-263 -26,-131 -38,-267 -44,-401 0,-3 -5,-3 -5,0 5,220 19,463 113,668 6,-1 11,-2 17,-4z"/>
   <path class="fil37" d="M5710 9246c-6,-11 -13,-21 -19,-32 -45,-81 -71,-165 -100,-252 -2,-5 -11,-4 -10,2 11,87 51,176 93,253 9,17 19,33 29,50l2 -5c2,-5 4,-11 5,-16z"/>
   <path class="fil37" d="M5262 6117c-1,-4 -8,-3 -8,1 7,132 -16,255 -45,383 -27,123 -56,246 -78,370 -20,115 -35,232 -39,349 -5,119 -4,245 31,360 1,3 7,3 7,-1 -14,-123 -30,-242 -26,-366 5,-129 23,-257 46,-383 23,-121 51,-242 78,-362 24,-113 57,-236 34,-351z"/>
   <path class="fil37" d="M5121 6322c0,-4 -8,-5 -8,-1 -23,146 -52,289 -84,433 -30,140 -53,278 -44,422 0,1 2,1 2,0 -4,-148 25,-296 58,-439 30,-136 71,-275 76,-415z"/>
   <path class="fil37" d="M5307 6961c63,-276 102,-559 118,-843l-10 -37c-21,151 -30,303 -46,455 -16,157 -51,309 -84,464 -58,273 -55,573 65,831 1,3 6,1 5,-2 -49,-141 -86,-281 -94,-431 -7,-148 14,-292 46,-437z"/>
   <path class="fil37" d="M5552 6789c-21,68 -38,137 -52,207 -36,180 -45,362 -28,545 0,4 6,4 6,0 -11,-183 1,-368 37,-548 11,-53 24,-107 40,-159 -1,-15 -2,-30 -3,-45z"/>
   <path class="fil37" d="M4976 8223c-12,-126 -42,-247 -83,-367 -2,-4 -8,-2 -6,2 37,120 61,247 73,372 5,54 7,108 6,163 7,19 14,39 21,58 2,-76 -3,-155 -11,-228z"/>
   <path class="fil4" d="M6578 3950c-348,-99 -729,-20 -1025,183 -146,100 -271,229 -362,381 -111,185 -156,399 -173,611 -20,250 -6,502 -27,751 -21,250 -68,496 -113,742 -86,468 -176,957 -63,1429 63,261 211,509 199,783 -12,247 -132,475 -325,628 -13,10 -9,31 0,42 100,131 285,190 440,124 153,-66 236,-239 205,-401 -26,1 -51,1 -77,2 40,159 212,257 365,180 190,-96 144,-311 58,-462 -57,-101 -119,-195 -158,-304 -37,-108 -56,-223 -63,-337 -16,-244 25,-488 66,-728 41,-242 81,-485 69,-732 -13,-250 -74,-493 -134,-735 -105,-425 -218,-891 -57,-1318 181,-478 673,-633 1125,-752 49,-13 12,-79 -31,-68 -354,93 -744,201 -993,491 -251,293 -286,701 -241,1069 56,458 243,893 255,1357 13,469 -161,922 -138,1392 12,235 81,436 200,636 65,108 156,260 62,378 -94,117 -272,75 -308,-69 -10,-40 -86,-47 -77,2 24,126 -32,263 -148,325 -123,66 -276,22 -359,-86 0,15 0,29 0,43 151,-119 258,-283 310,-468 57,-206 26,-407 -41,-607 -77,-230 -155,-448 -173,-692 -18,-242 6,-484 43,-722 73,-483 186,-953 193,-1444 3,-240 -1,-483 56,-718 47,-193 142,-368 281,-511 293,-301 741,-441 1150,-332 46,13 51,-51 9,-63l0 0z"/>
   <path class="fil38" d="M5070 4859c105,-12 250,0 354,23 -1,293 -16,562 -16,855 -125,-49 -248,-40 -381,-20 8,-271 20,-584 47,-858l-4 0z"/>
   <path class="fil39" d="M5129 4855l-26 852c-25,2 -50,6 -76,10 8,-271 20,-584 47,-858l-4 0c18,-2 38,-4 59,-4zm188 856l40 -842c24,4 46,8 67,13 -1,230 -10,444 -14,667l-15 184c-26,-10 -52,-17 -78,-22z"/>
   <path class="fil40" d="M5209 4855l-42 847c24,-1 48,-2 72,0l74 -839c-34,-4 -70,-7 -104,-8z"/>
   <path class="fil4" d="M5363 5650c-5,42 0,50 -42,44 -18,-2 -222,-27 -285,-21 4,-121 59,-647 49,-788 0,0 240,8 327,19 -1,203 -43,698 -49,746zm18 -796c-107,-22 -234,-44 -342,-18 -4,-1 -7,-2 -7,-2 -19,66 -17,141 -21,209 -5,73 -10,146 -13,219 -7,142 -12,285 -17,428 0,15 75,56 89,54 128,-18 252,-26 376,20 3,1 5,2 8,1 1,-286 15,-571 15,-856 0,-20 -72,-52 -88,-55z"/>
  </g>
 </g>
</svg>
